<svg viewBox="0 0 24 24" xmlns="http://www.w3.org/2000/svg"><g><path d="M15.77 6.83c.44-.34.52-.96.19-1.41 -.03-.04-.06-.08-.1-.11l-.88-.88c-.31-.31-.77-.38-1.16-.19l-2.08 1.03h.44L10.1 4.23c-.39-.2-.86-.12-1.16.18l-.88.87c-.4.39-.39 1.02 0 1.41 .03.03.06.06.1.09 .3.21.48.55.47.91 -.01.4-.1.68-.34 1.1 -.05.08-.05.08-.1.16 -.05.07-.08.12-.11.18 -.18.33-.27.61-.27.94 0 1.12 2.65 2.9 4.1 2.9 1.44 0 4.1-1.78 4.1-2.9 0-.34-.09-.62-.27-.95 -.03-.06-.07-.12-.11-.19 -.06-.09-.06-.09-.1-.17 -.24-.42-.34-.7-.34-1.11 -.01-.37.17-.7.46-.91Zm-.59-.81c-.57.39-.9 1.03-.9 1.72 -.01.6.14 1.04.46 1.59 .05.09.05.09.09.17 .03.06.06.1.08.15 .1.19.14.33.14.47 0 .47-2.15 1.9-3.1 1.9 -.96 0-3.1-1.43-3.1-1.9 0-.15.04-.28.14-.48 .02-.05.04-.1.08-.16 .04-.09.04-.09.09-.18 .31-.56.46-.99.46-1.6 0-.69-.34-1.33-.9-1.73 .01 0 .01 0 .01 0s0-.001-.001-.001l.87-.88c0-.01 0-.01 0-.01l2.07 1.03c.14.07.3.07.44 0l2.07-1.04c-.01 0-.01 0-.01 0l.87.87c-.01-.01-.01-.01-.01-.01 -.001-.001-.001 0 0-.001Z"/><path d="M20.99 16.25v.5c0 .27-.23.5-.5.5l-17 0c-.28 0-.5-.23-.5-.5v-1c0-.28.22-.5.5-.5h17c.27 0 .5.22.5.5v.5Zm1 0v-.5c0-.83-.68-1.5-1.5-1.5h-17c-.83 0-1.5.67-1.5 1.5v1c0 .82.67 1.5 1.5 1.5h17c.82 0 1.5-.68 1.5-1.5v-.5Z"/><path d="M20.06 17.5c-2.48 4.45-8.1 6.05-12.55 3.58C6 20.24 4.76 19 3.92 17.49c-.14-.25-.44-.33-.68-.2 -.25.13-.33.43-.2.67C3.96 19.62 5.34 21 7 21.92c4.93 2.74 11.16.96 13.9-3.97 .13-.25.04-.55-.2-.68 -.25-.14-.55-.05-.68.19Z"/><path d="M21.65 15.38c1.4-1.88 2.34-3.91 2.34-5.6 0-2.84-7.96-9.04-12-9.04 -4.05-.001-12 6.19-12 9.03 0 1.69.93 3.72 2.34 5.6 .16.22.47.26.69.1 .22-.17.26-.48.1-.7C1.83 13.05.97 11.19.97 9.76c0-2.22 7.46-8.04 11-8.04 3.53-.001 11 5.81 11 8.03 0 1.42-.86 3.28-2.15 5 -.17.22-.13.53.1.69 .22.16.53.12.69-.11Z"/><path d="M9.19 8.25h5.6c.27 0 .5-.23.5-.5 0-.28-.23-.5-.5-.5h-5.6c-.28 0-.5.22-.5.5 0 .27.22.5.5.5Z"/></g></svg>