<svg viewBox="0 0 24 24" xmlns="http://www.w3.org/2000/svg"><g fill="#68F872"><path d="M11 5h2c-.001 0 0 0 0 0v9c0 .44.53.66.85.35l3.63-3.638c-.01 0-.01 0-.01 0l1.29 1.28c-.01-.01-.01-.01-.01-.01l-6.78 6.78c0-.01 0-.01 0-.01l-6.78-6.79s0 0 0 0l1.28-1.29c0-.01 0-.01 0-.01l3.63 3.63c.31.31.85.09.85-.36v-9s0 0 0 0Zm0-1c-.56 0-1 .44-1 1v9l.85-.36L7.21 10c-.4-.4-1.03-.4-1.42-.01L4.5 11.27c-.4.39-.4 1.02-.01 1.41l6.78 6.78c.39.39 1.02.39 1.41 0l6.78-6.79c.39-.4.39-1.03 0-1.42l-1.3-1.29c-.4-.4-1.03-.4-1.42 0l-3.64 3.63 .85.35v-9c0-.56-.45-1-1-1h-2Z"/><path d="M23 12c0 6.07-4.93 11-11 11C5.92 23 1 18.07 1 12 1 5.92 5.92 1 12 1c6.07 0 11 4.92 11 11Zm1 0c0-6.63-5.38-12-12-12C5.37 0 0 5.37 0 12c0 6.62 5.37 12 12 12 6.62 0 12-5.38 12-12Z" transform="rotate(-89.781 11.9999 12.0001)"/></g></svg>