<svg viewBox="0 0 24 24" xmlns="http://www.w3.org/2000/svg"><g fill="#333"><path d="M22.5 12.001c0 5.79-4.71 10.5-10.5 10.5 -5.8 0-10.5-4.71-10.5-10.5C1.5 6.2 6.2 1.5 12 1.5c5.79 0 10.5 4.7 10.5 10.5Zm1 0C23.5 5.64 18.35.5 12 .5 5.64.5.5 5.64.5 12.001c0 6.35 5.14 11.5 11.5 11.5 6.35 0 11.5-5.15 11.5-11.5Z"/><path d="M14.5 16.505H13c-.28 0-.5-.23-.5-.5V9.5c0-.56-.45-1-1-1H10c-.28 0-.5.22-.5.5 0 .27.22.5.5.5h1.5c-.001 0 0 0 0 0v6.5c0 .82.67 1.5 1.5 1.5h1.5c.27 0 .5-.23.5-.5 0-.28-.23-.5-.5-.5Z"/><path d="M11.38 6.85c.19.19.51.19.7 0 .19-.2.19-.52 0-.71 -.2-.2-.52-.2-.71 0 -.2.19-.2.51 0 .7Z"/><path d="M11.745 6c-.42 0-.75.33-.75.75 0 .41.33.75.75.75 .41 0 .75-.34.75-.75 0-.42-.34-.75-.75-.75 -.28 0-.5.22-.5.5 0 .27.22.5.5.5 -.14 0-.25-.12-.25-.25 0-.14.11-.25.25-.25 .13 0 .25.11.25.25 0 .13-.12.25-.25.25 .27 0 .5-.23.5-.5 0-.28-.23-.5-.5-.5Z"/></g></svg>