<svg viewBox="0 0 24 24" xmlns="http://www.w3.org/2000/svg"><g fill="#F8687A"><path d="M11 20h2c.55 0 1-.45 1-1v-8.992l-.86.35 3.63 3.63c.39.39 1.02.39 1.41 0l1.29-1.3c.39-.4.39-1.03 0-1.42l-6.79-6.78c-.4-.4-1.03-.4-1.42-.01l-6.79 6.77c-.4.39-.4 1.02-.01 1.41l1.29 1.29c.39.39 1.02.39 1.41 0l3.63-3.64 -.86-.36v8.992c0 .55.44 1 1 1Zm0-1s0-.001 0 0v-8.992c0-.45-.54-.67-.86-.36L6.5 13.27c0-.01 0-.01 0-.01l-1.29-1.29s0 0 0 0l6.77-6.78c-.01 0-.01 0-.01 0l6.77 6.77c-.01-.01-.01-.01-.01-.01l-1.29 1.28c0-.01 0-.01 0-.01L13.8 9.58c-.32-.32-.86-.1-.86.35v8.992c0-.001-.001 0 0 0h-2Z"/><path d="M23 12c0 6.07-4.93 11-11 11C5.92 23 1 18.07 1 12 1 5.92 5.92 1 12 1c6.07 0 11 4.92 11 11Zm1 0c0-6.63-5.38-12-12-12C5.37 0 0 5.37 0 12c0 6.62 5.37 12 12 12 6.62 0 12-5.38 12-12Z" transform="rotate(-.183454 11.8785 11.9165)"/></g></svg>